<?xml version="1.0" standalone="no"?>
<!DOCTYPE svg PUBLIC "-//W3C//DTD SVG 20010904//EN"
 "http://www.w3.org/TR/2001/REC-SVG-20010904/DTD/svg10.dtd">
<svg version="1.0" xmlns="http://www.w3.org/2000/svg"
 width="410.000000pt" height="410.000000pt" viewBox="0 0 410.000000 410.000000"
 preserveAspectRatio="xMidYMid meet">
<metadata>
Created by potrace 1.14, written by Peter Selinger 2001-2017
</metadata>
<g transform="translate(0.000000,410.000000) scale(0.100000,-0.100000)"
fill="#000000" stroke="none">
<path d="M2205 3523 c-55 -16 -115 -56 -115 -77 0 -16 21 -26 53 -26 12 0 29
-4 37 -10 9 -5 -36 -9 -125 -9 -124 0 -138 2 -121 15 11 8 32 15 48 15 46 2
51 4 55 15 10 30 -88 67 -170 63 -60 -2 -147 -32 -164 -55 -9 -13 -9 -21 4
-40 28 -44 2 -67 -93 -79 l-49 -6 48 26 c50 27 55 38 32 72 -29 41 -138 14
-197 -49 l-28 -30 22 -41 c15 -30 21 -60 21 -105 -1 -57 -7 -82 -17 -71 -2 2
-6 28 -9 57 -8 79 -35 115 -102 136 -147 46 -304 -23 -254 -112 14 -26 34 -36
143 -68 33 -10 75 -31 93 -47 27 -24 32 -34 28 -60 -3 -17 -8 -34 -11 -38 -2
-5 15 -18 38 -30 24 -12 51 -28 60 -36 19 -17 22 -10 32 77 26 231 225 335
562 296 161 -18 309 -119 330 -224 7 -34 18 -41 31 -18 19 32 120 107 165 122
66 22 187 21 262 0 135 -40 254 -119 303 -204 27 -46 31 -80 21 -187 -3 -27 0
-29 32 -32 118 -9 219 -53 298 -129 53 -51 56 -52 81 -39 76 42 100 97 75 170
-29 85 -101 125 -229 129 l-40 1 -5 -58 -5 -59 -18 30 c-9 17 -20 51 -23 76
-6 42 -4 48 27 77 33 31 34 31 39 9 3 -13 12 -24 20 -25 8 -2 36 -6 62 -10
l48 -7 -16 46 c-31 89 -112 136 -324 187 -74 17 -157 37 -185 44 l-50 13 80 2
c44 1 88 2 98 1 25 -3 21 19 -12 71 -58 92 -148 127 -303 119 -23 -1 -27 -5
-24 -23 3 -13 5 -30 5 -39 1 -10 30 -27 87 -48 90 -34 106 -47 39 -30 -67 17
-274 19 -330 4 -78 -21 -118 -36 -147 -57 -27 -19 -27 -19 -41 4 -34 56 -58
101 -54 104 2 2 18 -12 37 -31 l33 -34 41 23 c67 39 128 54 224 55 48 1 52 3
52 25 0 50 -117 130 -236 161 -72 19 -200 18 -269 -2z"/>
<path d="M1745 3239 c-107 -33 -166 -73 -198 -136 -22 -42 -27 -70 -32 -203
-16 -389 -17 -399 -47 -475 -23 -59 -54 -95 -81 -95 -18 0 -19 2 -5 18 41 48
59 146 73 399 4 77 2 84 -21 112 -27 32 -103 72 -169 89 -110 29 -205 18 -280
-33 -59 -41 -88 -80 -117 -161 -24 -67 -29 -209 -14 -398 l8 -109 -83 7 c-46
4 -86 9 -88 11 -2 2 23 12 56 21 l60 16 -4 42 c-2 22 -11 47 -20 53 -22 17
-77 27 -108 19 -38 -10 -92 -73 -116 -135 -33 -87 -23 -162 42 -308 100 -230
121 -312 99 -403 -13 -53 -56 -110 -84 -110 -14 0 -13 7 9 44 50 85 36 196
-47 379 l-43 96 -71 16 c-63 14 -121 43 -176 87 -20 17 -68 105 -68 127 -1 23
-64 -79 -116 -184 -54 -110 -67 -202 -40 -281 19 -57 96 -160 132 -176 21 -10
28 -8 57 19 41 38 107 87 107 79 0 -3 -20 -33 -45 -67 -71 -96 -82 -181 -37
-283 80 -179 302 -228 448 -98 16 14 52 48 81 75 43 42 51 46 46 26 -3 -13
-27 -55 -52 -94 l-47 -70 25 -65 c37 -97 105 -162 202 -191 78 -24 231 -31
332 -15 l47 7 -1 73 c-1 64 17 193 26 184 2 -2 6 -30 9 -63 12 -132 19 -172
38 -215 49 -115 182 -190 339 -193 37 -1 70 1 74 4 3 4 1 19 -6 35 -19 49 -21
66 -25 184 l-4 115 30 -114 c48 -188 69 -225 155 -275 119 -70 305 -85 503
-42 121 26 232 132 248 236 7 40 -28 155 -76 250 -33 65 -60 130 -55 130 2 0
26 -30 53 -68 55 -74 101 -160 126 -239 15 -44 23 -53 54 -66 71 -29 128 -40
215 -42 210 -6 351 81 450 279 57 112 86 141 232 227 136 80 193 131 230 206
27 53 30 69 33 175 4 134 -14 216 -74 346 -74 162 -115 183 -167 87 -17 -31
-97 -204 -97 -209 0 -7 -99 -211 -100 -204 0 3 9 46 21 95 12 48 23 99 26 112
2 14 7 29 10 33 13 23 12 204 -3 276 -28 139 -151 361 -237 426 -47 36 -135
66 -212 72 l-62 5 -13 -62 c-18 -83 -16 -168 5 -264 9 -44 19 -95 22 -114 4
-39 -12 -94 -33 -112 -13 -11 -14 -5 -9 47 5 44 0 87 -19 169 -32 145 -28 262
18 431 31 117 -16 199 -157 275 -139 74 -298 88 -396 34 -141 -78 -341 -438
-375 -675 -4 -25 -8 -54 -10 -65 -3 -11 -5 -60 -6 -110 l-2 -90 -14 55 c-39
153 10 391 129 626 51 101 60 144 47 209 -16 79 -66 119 -200 165 -91 31 -270
36 -355 9z m-29 -456 c-10 -38 -36 -146 -41 -174 -3 -16 -12 -57 -20 -92 -8
-34 -17 -80 -21 -101 -3 -21 -8 -48 -11 -60 -12 -54 -15 -312 -3 -384 15 -100
65 -205 126 -265 56 -56 138 -87 256 -94 107 -8 140 1 190 48 56 53 158 100
286 132 56 15 114 34 127 44 14 10 37 42 51 71 35 70 37 138 7 305 -24 141
-31 266 -14 294 9 15 10 12 11 -17 0 -54 27 -219 51 -315 37 -152 30 -242 -25
-326 -14 -21 -26 -40 -26 -42 0 -3 28 -8 61 -11 90 -11 164 -42 216 -91 47
-45 54 -47 138 -29 106 23 199 127 235 264 17 64 19 75 32 170 14 104 27 82
22 -38 -9 -233 -108 -398 -265 -443 -58 -17 -57 -16 -75 -18 -14 -1 -16 -9
-10 -48 4 -27 9 -97 11 -158 7 -187 14 -272 25 -301 l10 -29 -18 24 c-34 42
-51 113 -56 234 -11 213 -25 271 -80 330 -27 29 -88 60 -141 73 -54 12 -249
11 -311 -2 -252 -52 -376 -257 -275 -454 19 -36 65 -108 104 -160 68 -92 61
-92 -32 0 -98 98 -149 186 -158 275 -4 43 -1 70 18 145 3 11 -7 15 -41 15 -25
1 -88 5 -140 9 -95 8 -95 8 -160 -26 -77 -40 -123 -95 -146 -176 -13 -44 -15
-82 -11 -186 3 -72 8 -144 11 -161 11 -57 -41 55 -53 117 -11 51 -14 142 -8
207 2 20 -4 25 -43 35 -25 6 -82 13 -127 15 -101 3 -171 -15 -244 -66 l-53
-36 34 42 c74 91 85 113 85 172 0 43 -6 65 -26 95 -49 74 -175 111 -289 85
l-45 -10 25 19 c14 11 33 22 42 25 48 16 27 113 -39 180 -48 48 -44 56 15 26
65 -33 102 -88 102 -150 0 -26 4 -28 60 -39 117 -21 204 -109 207 -210 0 -31
-3 -66 -8 -79 -8 -22 -7 -23 19 -16 40 10 243 6 274 -6 26 -10 29 -7 66 45 35
49 117 122 154 137 9 4 7 10 -7 22 -76 60 -120 120 -158 216 -62 155 -55 367
23 740 21 102 40 164 61 198 17 25 32 28 25 4z m-604 -195 c0 -13 2 -30 2 -38
2 -16 -6 -46 -49 -195 -56 -195 -6 -315 218 -523 26 -24 47 -48 47 -53 0 -21
-30 -5 -110 60 -161 130 -233 249 -231 381 1 86 6 108 45 205 18 45 39 105 46
134 12 53 29 68 32 29z m2723 -935 c-57 -104 -108 -166 -172 -209 -72 -48
-128 -63 -218 -60 -57 2 -85 10 -148 40 -42 20 -77 38 -77 41 0 2 24 -4 53
-13 33 -10 88 -16 152 -17 92 0 105 3 166 31 66 32 155 110 233 207 21 26 41
47 43 47 3 0 -12 -30 -32 -67z"/>
<path d="M785 3190 c-92 -20 -157 -88 -203 -213 -32 -84 -67 -149 -94 -173
-12 -12 -61 -43 -108 -68 -47 -26 -96 -58 -109 -70 -47 -47 -67 -159 -47 -261
3 -11 5 -24 5 -30 1 -5 23 28 49 74 55 97 67 86 23 -23 -60 -149 -56 -227 15
-300 39 -41 76 -60 143 -75 l41 -9 -7 52 c-17 120 -3 199 53 282 47 70 94 94
180 94 l69 0 1 128 c2 141 18 205 72 285 l29 43 -35 20 c-39 21 -57 50 -26 40
63 -19 113 -17 156 6 38 20 57 23 168 23 118 1 125 2 128 21 4 26 -26 47 -92
63 -27 7 -89 28 -138 47 -113 44 -205 59 -273 44z m-174 -382 c0 -47 -3 -93
-7 -102 -10 -27 -76 -52 -141 -54 l-58 -2 63 25 c35 13 70 31 78 40 9 8 19 41
24 73 8 55 29 116 37 108 3 -2 4 -42 4 -88z"/>
<path d="M3666 2649 c-15 -17 -52 -42 -82 -55 -30 -13 -54 -26 -54 -30 0 -3
21 -41 47 -84 l47 -78 38 19 c44 22 47 16 14 -29 -21 -29 -22 -38 -15 -80 5
-26 12 -54 15 -62 3 -8 8 -31 10 -50 3 -19 6 -44 9 -55 2 -11 4 -24 4 -30 1
-5 16 12 33 37 76 109 156 86 235 -67 21 -41 41 -75 44 -75 13 0 34 98 34 160
-1 75 -32 150 -77 183 -26 19 -29 20 -46 3 -23 -20 -51 -23 -111 -13 -55 10
-47 18 20 22 68 4 74 14 70 125 -3 98 -41 147 -133 175 -69 20 -70 20 -102
-16z"/>
</g>
</svg>
